<svg viewBox="0 0 50 50" enable-background="new 0 0 50 50">
  <sodipodi:namedview
     pagecolor="#ffffff"
     bordercolor="#666666"
     borderopacity="1"
     objecttolerance="10"
     gridtolerance="10"
     guidetolerance="10"
     inkscape:pageopacity="0"
     inkscape:pageshadow="2"
     inkscape:window-width="1842"
     inkscape:window-height="1051"
     id="namedview6"
     showgrid="false"
     inkscape:zoom="9.44"
     inkscape:cx="60.924269"
     inkscape:cy="34.406144"
     inkscape:window-x="69"
     inkscape:window-y="-9"
     inkscape:window-maximized="1"
     inkscape:current-layer="svg4" />
  <path
     style="line-height:normal;-inkscape-font-specification:'Bitstream Vera Sans';text-indent:0;text-align:start;text-transform:none"
     d="m 39,0 c -1.47285,0 -1.490854,2 0,2 h 9 v 6 h -4 c -1.584399,0 -1.602362,2 0,2 h 4 v 6 h -4 c -1.357031,0 -1.422365,2 0,2 h 4 v 6 h -9 c -1.28207,0 -1.241207,2 0,2 h 9 v 6 h -4 c -1.523572,0 -1.378108,2 0,2 h 4 v 6 h -4 c -1.345315,0 -1.521105,2 0,2 h 4 v 6 h -9 c -1.347969,0 -1.223916,2 0,2 h 10 c 0.825914,0.07681 1.037453,-0.370834 1,-1 V 1 C 50.001907,0.36134979 49.797703,0 49,0 Z M 10,7 C 9.9407851,12.731404 9.6313576,16.22977 9.09375,18.59375 8.5561424,20.95773 7.8746918,22.194313 7.125,23.5625 6.3753082,24.930687 5.5563681,26.429171 4.96875,29 4.4701961,31.181173 4.1258695,34.212039 4.03125,38.59375 l -2.3125,-2.3125 c -0.96038707,-0.960387 -2.24122973,0.63377 -1.4375,1.4375 l 4,4 c 0.7447382,0.649459 0.7330581,0.634297 1.4375,0 l 4,-4 c 0.820285,-0.820285 -0.4058389,-2.469161 -1.4375,-1.4375 l -2.25,2.25 c 0.09451,-4.223393 0.4232044,-7.085894 0.875,-9.0625 0.5373819,-2.351046 1.2184418,-3.568187 1.96875,-4.9375 0.7503082,-1.369313 1.568858,-2.917105 2.15625,-5.5 C 11.618642,16.448355 12.11172,12.817217 12,7 11.965293,5.1928205 10.018555,5.2040275 10,7 Z m 11,0 c 0.06965,5.731287 -0.368642,9.22977 -0.90625,11.59375 -0.537608,2.36398 -1.219058,3.600563 -1.96875,4.96875 -0.749692,1.368187 -1.568632,2.866671 -2.15625,5.4375 -0.498554,2.181173 -0.84288,5.212039 -0.9375,9.59375 l -2.3125,-2.3125 c -1.284679,-1.284679 -2.488575,0.386425 -1.4375,1.4375 l 4,4 c 0.675041,0.648673 0.707392,0.635506 1.4375,0 l 4,-4 c 0.876135,-0.876135 -0.422176,-2.452824 -1.4375,-1.4375 l -2.25,2.25 c 0.09451,-4.223393 0.423204,-7.085894 0.875,-9.0625 0.537382,-2.351046 1.218442,-3.568187 1.96875,-4.9375 0.750308,-1.369313 1.568858,-2.917105 2.15625,-5.5 C 22.618642,16.448355 22.976686,12.818243 23,7 23.006284,5.431722 20.980014,5.3553719 21,7 Z m 11,0 c -0.01932,5.731677 -0.368642,9.22977 -0.90625,11.59375 -0.537608,2.36398 -1.219058,3.600563 -1.96875,4.96875 -0.749692,1.368187 -1.568632,2.866671 -2.15625,5.4375 -0.498554,2.181173 -0.84288,5.212039 -0.9375,9.59375 l -2.3125,-2.3125 c -0.902483,-0.902483 -2.325213,0.549787 -1.4375,1.4375 l 4,4 c 0.709988,0.581278 0.720074,0.546706 1.4375,0 l 4,-4 c 0.887493,-0.887493 -0.484196,-2.390804 -1.4375,-1.4375 l -2.25,2.25 c 0.09451,-4.223393 0.423204,-7.085894 0.875,-9.0625 0.537382,-2.351046 1.218442,-3.568187 1.96875,-4.9375 0.750308,-1.369313 1.568858,-2.917105 2.15625,-5.5 C 33.618642,16.448355 33.952012,12.818092 34,7 34.014134,5.286423 32.005705,5.3080184 32,7 Z"
     id="path2"
     inkscape:connector-curvature="0"
     sodipodi:nodetypes="ssccssccssccssccssccssccssccccssssscssccsscssssssssscssccsscssssssssscssccsscsssss" />
</svg>
